<?xml version="1.0" encoding="UTF-8" standalone="no"?>
<!-- Generator: Adobe Illustrator 15.0.2, SVG Export Plug-In . SVG Version: 6.00 Build 0)  -->

<svg
   xmlns:dc="http://purl.org/dc/elements/1.1/"
   xmlns:cc="http://creativecommons.org/ns#"
   xmlns:rdf="http://www.w3.org/1999/02/22-rdf-syntax-ns#"
   xmlns:svg="http://www.w3.org/2000/svg"
   xmlns="http://www.w3.org/2000/svg"
   xmlns:sodipodi="http://sodipodi.sourceforge.net/DTD/sodipodi-0.dtd"
   xmlns:inkscape="http://www.inkscape.org/namespaces/inkscape"
   version="1.1"
   id="Layer_1"
   x="0px"
   y="0px"
   width="800.53px"
   height="260.43px"
   viewBox="0 0 800.53 260.43"
   enable-background="new 0 0 800.53 260.43"
   xml:space="preserve"
   inkscape:version="0.91 r13725"
   sodipodi:docname="xLiMe_Showcase_logo.svg"
   inkscape:export-filename="D:\src\xlime\xlime-showcase\app\images\xlime\xLiMe_Showcase_logo.png"
   inkscape:export-xdpi="11.977532"
   inkscape:export-ydpi="11.977532"><metadata
     id="metadata27"><rdf:RDF><cc:Work
         rdf:about=""><dc:format>image/svg+xml</dc:format><dc:type
           rdf:resource="http://purl.org/dc/dcmitype/StillImage" /><dc:title></dc:title></cc:Work></rdf:RDF></metadata><defs
     id="defs25" /><sodipodi:namedview
     pagecolor="#ffffff"
     bordercolor="#666666"
     borderopacity="1"
     objecttolerance="10"
     gridtolerance="10"
     guidetolerance="10"
     inkscape:pageopacity="0"
     inkscape:pageshadow="2"
     inkscape:window-width="1302"
     inkscape:window-height="720"
     id="namedview23"
     showgrid="false"
     inkscape:zoom="0.43596116"
     inkscape:cx="114.68912"
     inkscape:cy="130.215"
     inkscape:window-x="0"
     inkscape:window-y="0"
     inkscape:window-maximized="0"
     inkscape:current-layer="Layer_1" /><g
     id="g3"><path
       fill="#7D9B3C"
       d="M143.834,12.039c17.772-0.118,37.324,11.824,51.395,21.698c14.647,10.277,24.307,28.821,31.907,44.383   c5.872,12.023,10.115,24.793,12.034,38.009c2.206,15.197,3.473,30.557,2.887,45.907c-0.612,16.087-5.443,32.135-14.556,45.584   c-7.78,11.481-16.75,23.495-28.39,31.288c-10.039,6.72-24.473,9.572-36.021,12.551c-10.72,2.764-22.49,3.005-33.505,2.943   c-5.666-0.033-30.665-4.66-36.999-6.858c-7.483-2.597-14.358-5.66-21.497-9.113c-6.934-3.355-13.192-6.042-19.348-10.784   c-9.615-7.411-19.066-15.322-25.631-25.337c-7.999-12.203-13.99-24.355-16.916-36.724c-2.399-10.141-4.387-18.742-4.109-29.277   c0.384-14.542,2.876-31.009,9.591-44.017c8.709-16.869,22.461-33.507,36.581-46.088c9.672-8.62,20.838-14.9,32.198-21.027   c7.138-3.849,32.094-11.326,37.256-12.187C129.005,11.607,137.086,11.76,143.834,12.039z"
       id="path5" /><path
       fill="#FFFFFF"
       d="M195.345,43.431c2.456,2.448,16.092,19.293,16.968,20.609c2.502,3.759,8.113,15.995,8.916,17.198   c1.141,1.712,7.473,20.986,9.45,28.189c0.956,3.478,4.21,18.56,4.084,22.348c-0.126,3.775,1.295,19.54,1.059,24.271   c-0.404,8.141-0.698,13.836-2.594,20.453c-2.429,8.475-5.136,16.48-9.17,24.008c-1.826,3.406-11.392,16.818-14.166,20.056   c-2.747,3.208-14.511,11.528-19.477,13.831c-8.74,4.054-23.272,4.063-31.922,3.166c-24.733-2.568-37.856-18.347-40.228-20.503   c-8.011-7.279-19.184-21.64-25.428-32.156c-4.673-7.874-13.116-27.26-15.618-42.18c-0.956-5.697-3.967-29.381-1.55-44.401   c3.128-19.455,7.283-35.528,12.673-46.152c6.78-13.364,27.566-27.568,34.83-29.352c6.276-1.542,15.75-2.833,22.529-1.839   c6.118,0.896,23.651,5.939,26.089,7.476C173.769,29.697,190.303,38.404,195.345,43.431z"
       id="path7" /><path
       fill="#CCCA5C"
       d="M157.865,29.908c7.171,2.491,12.335,5.34,18.21,8.517c4.247,2.298,8.651,3.908,12.475,6.45   c2.791,1.855,3.697,5.431,2.765,9.576c-1.713,7.624-6.295,16.59-9.049,23.322c-3.098,7.57-7.054,16.265-10.303,25.232   c-0.954,2.636-2.533,6.827-3.634,9.784c-2.02-0.174-1.052-0.386-2.87,0.004c-0.93,0.199-12.986-12.186-18.102-17.699   c-12.598-13.584-24.042-26.717-35.391-40.879c-4.478-5.591-9.306-9.095-4.16-13.855c5.093-4.713,8.387-7.204,13.877-9.694   C131.079,26.405,147.372,26.52,157.865,29.908z"
       id="path9" /><path
       fill="#CCCA5C"
       d="M176.959,124.728c0.401-1.633-0.45-2.349-0.105-3.239c1.156-2.988,2.489-7.358,3.485-9.958   c1.994-5.198,3.826-10.273,5.846-15.359c1.759-4.426,8.468-21.202,10.4-25.003c1.191-2.345,2.942-9.213,5.833-8.477   c2.084,0.533,13.743,23.222,14.962,26.931c1.397,4.248,6.694,20.65,7.727,24.959c1.751,7.321,3.504,15.035,3.514,22.824   c0.011,8.34,1.019,19.532,0.071,27.138c-0.586,4.7-0.15,6.781-1.675,11.096c-1.366,3.858-6.586-2.442-8.369-4.76   c-1.722-2.234-12.923-13.918-16.584-18.098c-2.172-2.48-13.465-14.934-18.084-20.394   C182.964,131.188,177.486,125.921,176.959,124.728z"
       id="path11" /><path
       fill="#CCCA5C"
       d="M172.354,136.115c1.981,2.361,10.509,14.65,13.6,17.929c4.365,4.634,9.984,10.396,14.281,15.819   c4.497,5.68,8.125,11.142,13.288,16.29c10.434,10.403,2.333,14.197-2.139,20.828c-8.704,12.909-25.174,23.808-41.412,24.725   c-8.166,0.46-15.433-0.313-22.374-4.046c-3.026-1.625-4.779-3.326-8.268-7.196c-4.761-5.282,0.636-13.459,3.22-18.201   c4.519-8.286,7.416-17.155,10.802-24.353c3.462-7.36,14.606-35.488,16.428-41.526C170.217,136.842,171.982,136.468,172.354,136.115   z"
       id="path13" /><path
       fill="#CCCA5C"
       d="M135.126,187.599c3.286-7.146,6.945-15.535,9.922-22.842c4.72-11.574,11.277-24.379,15.839-36.915   c-0.582-0.735-1.448-1.515-1.206-2.77c-3.5-3.565-8.231-7.726-10.372-10.318c-2.29-2.771-11.525-11.499-14.085-14.619   c-4.884-5.951-10.997-11.493-15.679-17.801c-3.775-5.091-8.589-9.422-14.123-17.167c-4.022-4.393-7.353-14.166-12.87-7.03   c-2.799,3.618-5.88,20.354-6.85,23.642c-2.529,8.592-3.302,17.862-3.954,26.865c-0.6,8.303-0.684,17.372,0.797,26.488   c2.445,15.042,6.08,24.529,12.347,38.493c3.248,7.233,12.14,19.608,16.966,25.904c2.965,3.863,9.728,12.398,13.155,6.589   C125.63,205.075,134.157,189.567,135.126,187.599z"
       id="path15" /></g><text
     transform="matrix(1 0 0 1 232.3853 200.4331)"
     id="text17"><tspan
       x="0"
       y="0"
       fill="#7D9B3C"
       font-family="'CenturyGothic'"
       font-size="260"
       id="tspan19">Li</tspan><tspan
       x="172.148"
       y="0"
       fill="#7D9B3C"
       font-family="'CenturyGothic'"
       font-size="260"
       letter-spacing="-6"
       id="tspan21">Me</tspan></text>
<text
     xml:space="preserve"
     style="font-style:normal;font-variant:normal;font-weight:100;font-stretch:normal;font-size:182.94586182px;line-height:125%;font-family:'AR BONNIE';-inkscape-font-specification:'AR BONNIE, Thin';text-align:start;letter-spacing:0px;word-spacing:0px;writing-mode:lr-tb;text-anchor:start;fill:#7d9b3c;fill-opacity:1;stroke:none;stroke-width:1px;stroke-linecap:butt;stroke-linejoin:miter;stroke-opacity:1"
     x="223.79005"
     y="341.00494"
     id="text4155"
     sodipodi:linespacing="125%"><tspan
       sodipodi:role="line"
       id="tspan4157"
       x="223.79005"
       y="341.00494">Showcase</tspan></text>
</svg>